<svg width="41" height="50" viewBox="0 0 41 50" fill="none" xmlns="http://www.w3.org/2000/svg">
<path d="M17.6532 50C16.5116 50 15.5391 49.5983 14.7357 48.795C13.9323 47.9916 13.5306 47.0191 13.5306 45.8774V32.9809H4.96826C3.57994 32.9809 2.4048 32.4999 1.44285 31.5379C0.480952 30.576 0 29.4009 0 28.0126V9.09082C0 6.59612 0.891452 4.45732 2.67435 2.67442C4.4573 0.891472 6.5961 0 9.09075 0H40.8032V28.0126C40.8032 29.4009 40.3223 30.576 39.3604 31.5379C38.3984 32.4999 37.2233 32.9809 35.835 32.9809H27.2726V45.8774C27.2726 47.0191 26.8709 47.9916 26.0676 48.795C25.2641 49.5983 24.2916 50 23.15 50H17.6532ZM4.1225 18.7104H36.6807V4.12256H33.1395V14.8519H29.0169V4.12256H25.2113V9.61941H21.0888V4.12256H9.09075C7.70248 4.12256 6.52737 4.60352 5.56542 5.56542C4.60347 6.52737 4.1225 7.7025 4.1225 9.09082V18.7104ZM4.96826 28.8584H35.835C36.0816 28.8584 36.2843 28.7791 36.4429 28.6205C36.6014 28.4619 36.6807 28.2593 36.6807 28.0126V22.8329H4.1225V28.0126C4.1225 28.2593 4.20179 28.4619 4.36037 28.6205C4.51896 28.7791 4.72159 28.8584 4.96826 28.8584Z" fill="#1E1E1E"/>
</svg>
