<svg width="49" height="51" viewBox="0 0 49 51" fill="none" xmlns="http://www.w3.org/2000/svg">
<path d="M26.0495 50.9472C25.1913 50.9472 24.4609 50.6509 23.8584 50.0583C23.2557 49.4658 22.9544 48.7339 22.9544 47.8626C22.9544 47.4501 23.0274 47.0548 23.1733 46.6767C23.3192 46.2987 23.5483 45.9678 23.8606 45.6843L26.0467 43.6109L28.2328 45.6843C28.5451 45.9678 28.7742 46.2998 28.9201 46.6802C29.066 47.0606 29.139 47.4582 29.139 47.8732C29.139 48.7378 28.8386 49.4662 28.2379 50.0586C27.6371 50.651 26.9077 50.9472 26.0495 50.9472ZM17.512 47.2911L15.414 45.1556L22.2123 38.2357L24.3102 40.3713L17.512 47.2911ZM33.4682 43.514L30.257 40.2453L33.4682 36.9767L36.6794 40.2453L33.4682 43.514ZM11.2037 43.514L7.99243 40.2453L11.2037 36.9767L14.4148 40.2453L11.2037 43.514ZM12.9876 34.0469C9.39419 34.0469 6.33124 32.758 3.79877 30.1802C1.26626 27.6025 0 24.4847 0 20.827C0 17.4567 1.10608 14.527 3.31823 12.038C5.53042 9.54895 8.28257 8.09782 11.5747 7.68456C12.8479 5.30748 14.5887 3.44126 16.797 2.0859C19.0053 0.73054 21.4432 0.0528564 24.1107 0.0528564C27.7483 0.0528564 30.8905 1.25539 33.5371 3.66046C36.1838 6.06557 37.7561 9.06468 38.2541 12.6578C41.1942 12.8773 43.5935 14.0129 45.452 16.0645C47.3105 18.1161 48.2398 20.5454 48.2398 23.3524C48.2398 26.3176 47.2176 28.8413 45.1733 30.9236C43.1289 33.0058 40.6465 34.0469 37.726 34.0469H12.9876ZM12.9876 30.2699H37.726C39.6163 30.2699 41.2227 29.5968 42.5453 28.2506C43.8679 26.9044 44.5292 25.2692 44.5292 23.3451C44.5292 21.4211 43.8679 19.7859 42.5453 18.4396C41.2227 17.0934 39.6163 16.4203 37.726 16.4203H34.6338V14.5318C34.6338 11.5888 33.604 9.06938 31.5443 6.97358C29.4846 4.87777 27.0086 3.82987 24.1162 3.82987C22.0127 3.82987 20.0961 4.41043 18.3662 5.57157C16.6363 6.7327 15.3335 8.29576 14.4576 10.2608L14.0023 11.3841H12.8639C10.3434 11.4741 8.18778 12.4296 6.39692 14.2507C4.60607 16.0719 3.71064 18.264 3.71064 20.827C3.71064 23.4351 4.61625 25.6609 6.42747 27.5045C8.2387 29.3481 10.4254 30.2699 12.9876 30.2699Z" fill="#1C1B1F"/>
</svg>
