<svg width="42" height="51" viewBox="0 0 42 51" fill="none" xmlns="http://www.w3.org/2000/svg">
<path d="M28.9825 50.9893H20.9212C20.3102 50.9893 19.7896 50.7703 19.3594 50.3324C18.9291 49.8944 18.714 49.3645 18.714 48.7425V34.4803C18.714 33.8584 18.9291 33.3285 19.3594 32.8905C19.7896 32.4526 20.3102 32.2336 20.9212 32.2336H23.0805V23.4418C23.0805 23.2138 23.0085 23.0266 22.8646 22.88C22.7206 22.7335 22.5366 22.6603 22.3127 22.6603H4.51052C3.26612 22.6603 2.20327 22.2117 1.32196 21.3147C0.440653 20.4176 0 19.3357 0 18.0691V9.13088C0 7.86422 0.440653 6.78236 1.32196 5.88529C2.20327 4.98822 3.26612 4.53968 4.51052 4.53968H8.49318V2.34177C8.49318 1.71981 8.70831 1.18985 9.13857 0.7519C9.56882 0.313947 10.0894 0.0949707 10.7004 0.0949707H39.2033C39.8143 0.0949707 40.3349 0.313947 40.7652 0.7519C41.1954 1.18985 41.4106 1.71981 41.4106 2.34177V10.5472C41.4106 11.1691 41.1954 11.6991 40.7652 12.137C40.3349 12.575 39.8143 12.794 39.2033 12.794H10.7004C10.0894 12.794 9.56882 12.575 9.13857 12.137C8.70831 11.6991 8.49318 11.1691 8.49318 10.5472V8.34931H4.51052C4.28658 8.34931 4.10262 8.42259 3.95864 8.56913C3.81471 8.71568 3.74275 8.90293 3.74275 9.13088V18.0691C3.74275 18.297 3.81471 18.4843 3.95864 18.6308C4.10262 18.7773 4.28658 18.8506 4.51052 18.8506H22.3127C23.5571 18.8506 24.6199 19.2991 25.5013 20.1962C26.3826 21.0933 26.8232 22.1751 26.8232 23.4418V32.2336H28.9825C29.5935 32.2336 30.1141 32.4526 30.5444 32.8905C30.9747 33.3285 31.1898 33.8584 31.1898 34.4803V48.7425C31.1898 49.3644 30.9747 49.8943 30.5444 50.3323C30.1141 50.7703 29.5935 50.9893 28.9825 50.9893ZM22.4567 47.1796H27.4471V36.0434H22.4567V47.1796ZM12.2359 8.9844H37.6678V3.90472H12.2359V8.9844Z" fill="#1C1B1F"/>
</svg>
