<svg width="43" height="51" viewBox="0 0 43 51" fill="none" xmlns="http://www.w3.org/2000/svg">
<path d="M40.2833 17.0586L31.4024 8.01902L25.5191 13.9642L20.6209 9.02164L27.9896 1.47774C28.4724 0.986352 29.011 0.629578 29.6055 0.407414C30.2001 0.185203 30.7991 0.0740967 31.4024 0.0740967C32.0342 0.0740967 32.6448 0.185203 33.234 0.407414C33.8232 0.629578 34.345 0.986352 34.7993 1.47774L39.8839 6.65334C40.6435 7.39761 41.2017 8.24846 41.5585 9.20588C41.9151 10.1633 42.0935 11.1461 42.0935 12.1541C42.0935 13.0176 41.9462 13.8711 41.6516 14.7148C41.357 15.5584 40.9009 16.3397 40.2833 17.0586ZM5.47344 29.4259C4.76707 28.707 4.41388 27.8715 4.41388 26.9195C4.41388 25.9675 4.76707 25.132 5.47344 24.4129L11.7773 17.953L16.6756 22.9388L10.3025 29.4259C9.62453 30.1449 8.82677 30.5044 7.9092 30.5044C6.99168 30.5044 6.17976 30.1449 5.47344 29.4259ZM1.37898 49.5648C0.924606 49.0734 0.58118 48.5234 0.348708 47.9146C0.116236 47.3058 0 46.6708 0 46.0096C0 45.3485 0.10913 44.718 0.32739 44.1183C0.545696 43.5185 0.896228 42.9729 1.37898 42.4816L20.6209 22.9388L11.3513 13.4601C10.6449 12.77 10.2962 11.958 10.305 11.024C10.3139 10.0901 10.6716 9.26363 11.3779 8.54467C12.0558 7.82567 12.8651 7.47067 13.8058 7.47969C14.7463 7.48876 15.5698 7.85277 16.2761 8.57172L25.5191 17.98L29.4644 13.9642L36.4978 21.2101C36.9272 21.6472 37.1419 22.1376 37.1419 22.6814C37.1419 23.2251 36.9272 23.7156 36.4978 24.1528C36.0683 24.5719 35.5731 24.7724 35.0123 24.7543C34.4515 24.7362 33.9031 24.4725 33.3671 23.963L8.24185 49.5377C7.75914 50.0291 7.22761 50.3903 6.64726 50.6216C6.06691 50.8528 5.46617 50.9684 4.84503 50.9684C4.22388 50.9684 3.6116 50.8501 3.00818 50.6135C2.40476 50.3768 1.86169 50.0273 1.37898 49.5648Z" fill="#1E1E1E"/>
</svg>
