<svg width="61" height="51" viewBox="0 0 61 51" fill="none" xmlns="http://www.w3.org/2000/svg">
<path d="M0 50.9472V44.4102C0 42.9625 0.37221 41.6317 1.11663 40.4178C1.8611 39.2039 2.89999 38.2577 4.23332 37.5791C6.63331 36.3425 9.3185 35.3209 12.2889 34.5141C15.2592 33.7074 18.3851 33.304 21.6666 33.304C24.9481 33.304 28.074 33.7074 31.0444 34.5141C34.0147 35.3209 36.6999 36.3425 39.0999 37.5791C40.4332 38.2577 41.4721 39.2039 42.2166 40.4178C42.961 41.6317 43.3332 42.9625 43.3332 44.4102V50.9472H0ZM4.3332 46.5364H38.9999V44.4102C38.9999 43.7391 38.8212 43.1642 38.4638 42.6854C38.1064 42.2066 37.6555 41.8165 37.111 41.5149C35.3407 40.5949 33.0953 39.7316 30.3749 38.9249C27.6546 38.1181 24.7518 37.7147 21.6666 37.7147C18.5814 37.7147 15.6787 38.1181 12.9583 38.9249C10.2379 39.7316 7.99254 40.5949 6.22218 41.5149C5.67772 41.8165 5.22678 42.2066 4.86938 42.6854C4.51193 43.1642 4.3332 43.7391 4.3332 44.4102V46.5364ZM21.6666 28.5537C18.8407 28.5537 16.4491 27.5575 14.4916 25.5651C12.5343 23.5727 11.5556 21.0817 11.5556 18.0921H10.8889C10.5111 18.0921 10.2037 17.9715 9.96669 17.7302C9.72966 17.4889 9.61114 17.1761 9.61114 16.7915C9.61114 16.407 9.72966 16.0941 9.96669 15.8528C10.2037 15.6115 10.5111 15.4909 10.8889 15.4909H11.5556C11.5926 13.6436 12.0111 11.9745 12.8111 10.4836C13.6111 8.99255 14.7481 7.7136 16.2222 6.64671V9.44025C16.2222 9.82478 16.3407 10.1377 16.5777 10.379C16.8147 10.6202 17.1221 10.7409 17.4999 10.7409C17.8777 10.7409 18.1851 10.6202 18.4221 10.379C18.6592 10.1377 18.7777 9.82478 18.7777 9.44025V5.52702C19.1925 5.37999 19.6453 5.26028 20.136 5.1679C20.6268 5.07556 21.1369 5.0294 21.6666 5.0294C22.1962 5.0294 22.7064 5.07556 23.1972 5.1679C23.6879 5.26028 24.1407 5.37999 24.5555 5.52702V9.44025C24.5555 9.82478 24.674 10.1377 24.9111 10.379C25.1481 10.6202 25.4555 10.7409 25.8333 10.7409C26.2111 10.7409 26.5185 10.6202 26.7555 10.379C26.9925 10.1377 27.1111 9.82478 27.1111 9.44025V6.64671C28.6036 7.7136 29.7453 8.99255 30.536 10.4836C31.3267 11.9745 31.7406 13.6436 31.7776 15.4909H32.4443C32.8221 15.4909 33.1295 15.6115 33.3665 15.8528C33.6036 16.0941 33.7221 16.407 33.7221 16.7915C33.7221 17.1761 33.6036 17.4889 33.3665 17.7302C33.1295 17.9715 32.8221 18.0921 32.4443 18.0921H31.7776C31.7776 21.0817 30.799 23.5727 28.8416 25.5651C26.8842 27.5575 24.4925 28.5537 21.6666 28.5537ZM21.6666 24.1429C23.2925 24.1429 24.662 23.5765 25.7749 22.4437C26.8879 21.3108 27.4444 19.9168 27.4444 18.2618H15.8888C15.8888 19.9168 16.4453 21.3108 17.5583 22.4437C18.6712 23.5765 20.0407 24.1429 21.6666 24.1429ZM43.3889 34.2652L43.0666 32.1163C42.7407 32.0183 42.413 31.8844 42.0833 31.7148C41.7537 31.5452 41.4593 31.3284 41.2 31.0644L39.2333 31.8562L37.9555 29.549L39.6 28.1918C39.5629 28.0071 39.5444 27.8318 39.5444 27.6659V26.6282C39.5444 26.4717 39.5629 26.2917 39.6 26.0881L37.9555 24.731L39.2333 22.4237L41.2 23.2155C41.4296 22.9817 41.7166 22.7725 42.0611 22.5877C42.4055 22.403 42.7407 22.2617 43.0666 22.1636L43.3889 20.0148H45.9444L46.2666 22.1636C46.5926 22.2617 46.9278 22.403 47.2722 22.5877C47.6167 22.7725 47.9037 22.9817 48.1333 23.2155L50.1 22.4237L51.3778 24.731L49.7333 26.0881C49.7704 26.2917 49.7889 26.4717 49.7889 26.6282V27.6659C49.7889 27.8318 49.7704 28.0071 49.7333 28.1918L51.3778 29.549L50.1 31.8562L48.1333 31.0644C47.8741 31.3284 47.5796 31.5452 47.25 31.7148C46.9204 31.8844 46.5926 32.0183 46.2666 32.1163L45.9444 34.2652H43.3889ZM44.6667 29.5716C45.3185 29.5716 45.8796 29.3322 46.35 28.8534C46.8204 28.3747 47.0556 27.8035 47.0556 27.14C47.0556 26.4764 46.8204 25.9053 46.35 25.4265C45.8796 24.9477 45.3185 24.7083 44.6667 24.7083C44.0148 24.7083 43.4537 24.9477 42.9833 25.4265C42.5129 25.9053 42.2778 26.4764 42.2778 27.14C42.2778 27.8035 42.5129 28.3747 42.9833 28.8534C43.4537 29.3322 44.0148 29.5716 44.6667 29.5716ZM50.2001 18.9403L49.789 16.2485C49.3001 16.1203 48.8149 15.9177 48.3333 15.6406C47.8518 15.3635 47.4481 15.0308 47.1222 14.6425L44.5333 15.6151L42.9 12.7651L45.0778 10.9555C44.9815 10.6917 44.9241 10.4485 44.9056 10.226C44.8871 10.0036 44.8778 9.76048 44.8778 9.49656C44.8778 9.23265 44.8871 8.98949 44.9056 8.76708C44.9241 8.54463 44.9815 8.30147 45.0778 8.0376L42.9 6.22805L44.5333 3.37798L47.1222 4.35064C47.4481 3.96234 47.8518 3.62964 48.3333 3.35254C48.8149 3.07544 49.3001 2.87279 49.789 2.74458L50.2001 0.0528564H53.4667L53.8778 2.74458C54.3667 2.87279 54.8518 3.07544 55.3333 3.35254C55.8148 3.62964 56.2185 3.96234 56.5444 4.35064L59.1333 3.37798L60.7666 6.22805L58.5888 8.0376C58.6851 8.30147 58.7425 8.54463 58.7611 8.76708C58.7796 8.98949 58.7889 9.23265 58.7889 9.49656C58.7889 9.76048 58.7796 10.0036 58.7611 10.226C58.7425 10.4485 58.6851 10.6917 58.5888 10.9555L60.7666 12.7651L59.1333 15.6151L56.5444 14.6425C56.2185 15.0308 55.8148 15.3635 55.3333 15.6406C54.8518 15.9177 54.3667 16.1203 53.8778 16.2485L53.4667 18.9403H50.2001ZM51.8334 13.3419C52.9 13.3419 53.7963 12.9725 54.5223 12.2336C55.2482 11.4947 55.6111 10.5823 55.6111 9.49656C55.6111 8.41081 55.2482 7.49847 54.5223 6.75955C53.7963 6.02064 52.9 5.65118 51.8334 5.65118C50.7667 5.65118 49.8704 6.02064 49.1444 6.75955C48.4185 7.49847 48.0556 8.41081 48.0556 9.49656C48.0556 10.5823 48.4185 11.4947 49.1444 12.2336C49.8704 12.9725 50.7667 13.3419 51.8334 13.3419Z" fill="#1E1E1E"/>
</svg>
