<svg width="48" height="51" viewBox="0 0 48 51" fill="none" xmlns="http://www.w3.org/2000/svg">
<path d="M42.8342 35.473L24.8798 17.1975V5.60976L19.0902 11.396L16.348 8.60484L24.8798 0.0528564L38.6809 13.8767C40.6291 15.8428 42.0686 17.9956 42.9993 20.3352C43.9301 22.6748 44.3955 25.1197 44.3955 27.6698C44.3955 29.0926 44.2512 30.4891 43.9626 31.8593C43.674 33.2294 43.2979 34.434 42.8342 35.473ZM45.1762 50.9472L37.1597 42.7873C35.3549 44.3426 33.3792 45.4699 31.2325 46.1694C29.0857 46.869 26.9682 47.2188 24.8798 47.2188C19.4622 47.2188 14.8552 45.3392 11.0588 41.5802C7.2624 37.8212 5.36422 33.1844 5.36422 27.6698C5.36422 25.4525 5.72786 23.2894 6.45514 21.1807C7.18238 19.072 8.35667 17.0516 9.97799 15.1194L0 4.96296L2.74215 2.17176L47.9183 48.156L45.1762 50.9472ZM24.8798 43.2459V30.3285L12.7201 17.9513C11.4424 19.5337 10.5475 21.1272 10.0354 22.7317C9.52333 24.3361 9.26729 25.9822 9.26729 27.6698C9.26729 32.0842 10.7852 35.7838 13.821 38.7687C16.8567 41.7535 20.543 43.2459 24.8798 43.2459Z" fill="#1C1B1F"/>
</svg>
