<svg width="84" height="51" viewBox="0 0 84 51" fill="none" xmlns="http://www.w3.org/2000/svg">
<path d="M41.9843 50.9893C39.3327 50.9893 36.7678 50.61 34.2894 49.8514C31.8111 49.0929 29.5031 47.9933 27.3656 46.5526C24.2923 46.3526 21.1438 45.6778 17.9203 44.5282C14.6967 43.3786 11.759 41.4925 9.10737 38.8699C6.45576 36.2472 4.27496 32.8043 2.56498 28.5411C0.854992 24.2779 0 18.9562 0 12.576V10.415C0 7.52777 0.980638 5.08593 2.94191 3.0895C4.90319 1.09315 7.30208 0.0949707 10.1386 0.0949707C12.7787 0.0949707 15.0606 1.07553 16.9843 3.03664C18.9081 4.99775 19.9826 7.37193 20.2079 10.1592C22.3396 9.54763 24.1738 8.83463 25.7105 8.02019C27.2472 7.20582 28.7781 6.4223 30.3032 5.66962C32.0883 4.69342 33.8835 3.88044 35.6889 3.23066C37.4942 2.58088 39.5927 2.25599 41.9843 2.25599C44.4222 2.25599 46.5323 2.58088 48.3145 3.23066C50.0967 3.88044 51.8804 4.69342 53.6655 5.66962C55.1444 6.4223 56.6637 7.20582 58.2235 8.02019C59.7833 8.83463 61.6291 9.54763 63.7608 10.1592C63.9861 7.29549 65.0606 4.9022 66.9843 2.97931C68.9081 1.05642 71.19 0.0949707 73.8301 0.0949707C76.6666 0.0949707 79.0655 1.09315 81.0268 3.0895C82.9881 5.08593 83.9687 7.52777 83.9687 10.415V12.576C83.9687 18.9562 83.1137 24.2779 81.4037 28.5411C79.6937 32.8043 77.5129 36.2472 74.8613 38.8699C72.2096 41.4925 69.272 43.3786 66.0484 44.5282C62.8249 45.6778 59.6764 46.3526 56.6031 46.5526C54.4656 47.9933 52.1576 49.0929 49.6793 49.8514C47.2009 50.61 44.636 50.9893 41.9843 50.9893ZM20.104 39.4963C18.5327 37.2911 17.2733 34.8096 16.3258 32.0517C15.3784 29.2938 14.9047 26.4037 14.9047 23.3811V10.415C14.9047 9.05659 14.444 7.90843 13.5225 6.97053C12.6011 6.03263 11.4731 5.56368 10.1386 5.56368C8.80411 5.56368 7.67612 6.03263 6.75463 6.97053C5.83321 7.90843 5.3725 9.05659 5.3725 10.415V12.576C5.3725 21.2202 6.90633 27.496 9.974 31.4035C13.0416 35.3109 16.4183 38.0085 20.104 39.4963ZM41.9843 45.5206C47.9867 45.5206 53.1051 43.3581 57.3396 39.0332C61.5742 34.7082 63.6915 29.4908 63.6915 23.3811V15.8131C61.1669 15.2015 58.9904 14.5121 57.162 13.7447C55.3336 12.9773 53.6886 12.1261 52.227 11.1911C50.2108 9.95038 48.4171 9.06248 46.8457 8.52736C45.2744 7.99225 43.6539 7.72469 41.9843 7.72469C40.3437 7.72469 38.7449 7.99225 37.188 8.52736C35.6311 9.06248 33.8301 9.95038 31.785 11.1911C30.3234 12.0496 28.6784 12.9008 26.85 13.7447C25.0216 14.5885 22.8306 15.278 20.2772 15.8131V23.3811C20.2772 29.4908 22.3945 34.7082 26.6291 39.0332C30.8636 43.3581 35.982 45.5206 41.9843 45.5206ZM29.3761 22.1463C30.7972 21.7169 32.0652 21.2142 33.1801 20.6379C34.2952 20.0617 35.3639 19.4678 36.3864 18.8562C37.3512 18.274 38.2582 17.78 39.1074 17.3743C39.9566 16.9686 40.9156 16.7657 41.9843 16.7657C43.082 16.7657 44.0409 16.9612 44.8613 17.3523C45.6816 17.7434 46.5886 18.2447 47.5823 18.8562C48.547 19.4384 49.5681 20.0249 50.6455 20.6159C51.7229 21.2068 53.0386 21.7169 54.5926 22.1463V17.8594C53.5239 17.4772 52.6126 17.0788 51.8587 16.6643C51.1048 16.2497 50.3437 15.8278 49.5753 15.3986C48.4315 14.6929 47.2906 14.0681 46.1525 13.5242C45.0144 12.9803 43.625 12.7084 41.9843 12.7084C40.3437 12.7084 38.9471 12.9803 37.7946 13.5242C36.6421 14.0681 35.4708 14.6929 34.2807 15.3986C33.5124 15.8278 32.7513 16.2497 31.9974 16.6643C31.2434 17.0788 30.3697 17.4772 29.3761 17.8594V22.1463ZM63.8213 39.5403C67.536 38.0527 70.9271 35.3477 73.9947 31.4255C77.0624 27.5033 78.5962 21.2202 78.5962 12.576V10.415C78.5962 9.05659 78.1355 7.90843 77.2141 6.97053C76.2926 6.03263 75.1646 5.56368 73.8301 5.56368C72.4956 5.56368 71.3676 6.03263 70.4461 6.97053C69.5247 7.90843 69.064 9.05659 69.064 10.415V23.3811C69.064 26.4037 68.6019 29.3086 67.6775 32.0958C66.7532 34.8831 65.4678 37.3646 63.8213 39.5403Z" fill="#1C1B1F"/>
</svg>
