<svg width="24" height="52" viewBox="0 0 24 52" fill="none" xmlns="http://www.w3.org/2000/svg">
<path d="M11.8421 51.8545C8.55601 51.8545 5.7608 50.6818 3.45646 48.3362C1.15215 45.9907 0 43.1455 0 39.8006C0 37.7608 0.46476 35.8703 1.39428 34.1291C2.32376 32.388 3.61339 30.9474 5.26317 29.8072V7.65678C5.26317 5.7852 5.89997 4.2012 7.17357 2.90478C8.44721 1.6084 10.0034 0.960205 11.8421 0.960205C13.6808 0.960205 15.2369 1.6084 16.5106 2.90478C17.7842 4.2012 18.421 5.7852 18.421 7.65678V29.8072C20.0708 30.9474 21.3604 32.388 22.2899 34.1291C23.2194 35.8703 23.6841 37.7608 23.6841 39.8006C23.6841 43.1455 22.532 45.9907 20.2277 48.3362C17.9233 50.6818 15.1281 51.8545 11.8421 51.8545ZM9.21048 24.2439H14.4737V20.8955H11.8421V18.526H14.4737V12.8595H11.8421V10.49H14.4737V7.65678C14.4737 6.89783 14.2215 6.26164 13.7171 5.74824C13.2127 5.23483 12.5877 4.97812 11.8421 4.97812C11.0965 4.97812 10.4715 5.23483 9.96706 5.74824C9.46268 6.26164 9.21048 6.89783 9.21048 7.65678V24.2439Z" fill="#1C1B1F"/>
</svg>
